HIERARCHY
ROOT Hips
{
	OFFSET 0.000000 0.000000 0.000000
	CHANNELS 6 Xposition Yposition Zposition Zrotation Yrotation Xrotation 
	JOINT LHipJoint
	{
		OFFSET 0.000000 0.000000 0.000000
		CHANNELS 3 Zrotation Yrotation Xrotation
		JOINT LeftUpLeg
		{
			OFFSET 1.363060 -1.794630 0.839290
			CHANNELS 3 Zrotation Yrotation Xrotation
			JOINT LeftLeg
			{
				OFFSET 2.448110 -6.726130 0.000000
				CHANNELS 3 Zrotation Yrotation Xrotation
				JOINT LeftFoot
				{
					OFFSET 2.562200 -7.039590 0.000000
					CHANNELS 3 Zrotation Yrotation Xrotation
					JOINT LeftToeBase
					{
						OFFSET 0.157640 -0.433110 2.322550
						CHANNELS 3 Zrotation Yrotation Xrotation
						End Site
						{
							OFFSET 0.000000 0.000000 0.000000
						}
					}
				}
			}
		}
	}
	JOINT RHipJoint
	{
		OFFSET 0.000000 0.000000 0.000000
		CHANNELS 3 Zrotation Yrotation Xrotation
		JOINT RightUpLeg
		{
			OFFSET -1.305520 -1.794630 0.839290
			CHANNELS 3 Zrotation Yrotation Xrotation
			JOINT RightLeg
			{
				OFFSET -2.542530 -6.985550 0.000000
				CHANNELS 3 Zrotation Yrotation Xrotation
				JOINT RightFoot
				{
					OFFSET -2.568260 -7.056230 0.000000
					CHANNELS 3 Zrotation Yrotation Xrotation
					JOINT RightToeBase
					{
						OFFSET -0.164730 -0.452590 2.363150
						CHANNELS 3 Zrotation Yrotation Xrotation
						End Site
						{
							OFFSET 0.000000 0.000000 0.000000
						}
					}
				}
			}
		}
	}
	JOINT LowerBack
	{
		OFFSET 0.000000 0.000000 0.000000
		CHANNELS 3 Zrotation Yrotation Xrotation
		JOINT Spine
		{
			OFFSET 0.028270 2.035590 -0.193380
			CHANNELS 3 Zrotation Yrotation Xrotation
			JOINT Spine1
			{
				OFFSET 0.056720 2.048850 -0.042750
				CHANNELS 3 Zrotation Yrotation Xrotation
				JOINT Neck
				{
					OFFSET 0.000000 0.000000 0.000000
					CHANNELS 3 Zrotation Yrotation Xrotation
					JOINT Neck1
					{
						OFFSET -0.054170 1.746240 0.172020
						CHANNELS 3 Zrotation Yrotation Xrotation
						JOINT Head
						{
							OFFSET 0.104070 1.761360 -0.123970
							CHANNELS 3 Zrotation Yrotation Xrotation
							End Site
							{
								OFFSET 0.000000 0.000000 0.000000
							}
						}
					}
				}
				JOINT LeftShoulder
				{
					OFFSET 0.000000 0.000000 0.000000
					CHANNELS 3 Zrotation Yrotation Xrotation
					JOINT LeftArm
					{
						OFFSET 3.362410 1.200890 -0.311210
						CHANNELS 3 Zrotation Yrotation Xrotation
						JOINT LeftForeArm
						{
							OFFSET 4.983000 -0.000000 -0.000000
							CHANNELS 3 Zrotation Yrotation Xrotation
							JOINT LeftHand
							{
								OFFSET 3.483560 -0.000000 -0.000000
								CHANNELS 3 Zrotation Yrotation Xrotation
								JOINT LeftFingerBase
								{
									OFFSET 0.000000 0.000000 0.000000
									CHANNELS 3 Zrotation Yrotation Xrotation
									JOINT LeftHandIndex1
									{
										OFFSET 0.715260 -0.000000 -0.000000
										CHANNELS 3 Zrotation Yrotation Xrotation
										End Site
										{
											OFFSET 0.000000 0.000000 0.000000
										}
									}
								}
								JOINT LThumb
								{
									OFFSET 0.000000 0.000000 0.000000
									CHANNELS 3 Zrotation Yrotation Xrotation
									End Site
									{
										OFFSET 0.000000 0.000000 0.000000
									}
								}
							}
						}
					}
				}
				JOINT RightShoulder
				{
					OFFSET 0.000000 0.000000 0.000000
					CHANNELS 3 Zrotation Yrotation Xrotation
					JOINT RightArm
					{
						OFFSET -3.136600 1.374050 -0.404650
						CHANNELS 3 Zrotation Yrotation Xrotation
						JOINT RightForeArm
						{
							OFFSET -5.241900 -0.000000 -0.000000
							CHANNELS 3 Zrotation Yrotation Xrotation
							JOINT RightHand
							{
								OFFSET -3.444170 -0.000000 -0.000000
								CHANNELS 3 Zrotation Yrotation Xrotation
								JOINT RightFingerBase
								{
									OFFSET 0.000000 0.000000 0.000000
									CHANNELS 3 Zrotation Yrotation Xrotation
									JOINT RightHandIndex1
									{
										OFFSET -0.622530 -0.000000 -0.000000
										CHANNELS 3 Zrotation Yrotation Xrotation
										End Site
										{
											OFFSET 0.000000 0.000000 0.000000
										}
									}
								}
								JOINT RThumb
								{
									OFFSET 0.000000 0.000000 0.000000
									CHANNELS 3 Zrotation Yrotation Xrotation
									End Site
									{
										OFFSET 0.000000 0.000000 0.000000
									}
								}
							}
						}
					}
				}
			}
		}
	}
}
MOTION
Frames: 10
Frame Time: 0.008333
13.820464 17.499175 -14.769271 0.788947 -11.336931 7.671723 8.180661 5.554064 0.286181 -17.778287 -20.589667 -6.291991 -2.281070 2.782770 11.488459 -0.728659 8.915118 -9.607082 0.595700 -4.941000 -13.740200 -11.462277 -5.797554 0.611510 22.186955 26.596372 -11.308998 0.917549 -6.475874 20.591124 1.458206 -21.650026 -12.620005 -0.015700 0.808100 -2.221000 0.965129 0.139591 7.520850 1.594204 0.244114 1.349678 0.459993 0.304150 1.497215 -3.119472 2.491809 -18.157735 4.533464 3.693753 5.973920 1.425200 1.927200 3.474700 2.966933 -11.969546 2.136899 -75.291544 -11.323033 34.989831 19.610438 -21.487382 -4.586090 -0.949716 0.683816 36.593631 -3.803542 39.851305 -1.685800 -7.125000 0.000000 0.000000 -47.312700 63.613200 -23.942100 -3.353379 12.420698 4.952181 64.592799 12.790131 55.448913 -27.841339 27.436666 -6.065688 -1.381757 -0.364413 -19.518782 -9.756916 18.779323 -2.695000 7.125000 0.000000 0.000000 12.891000 -11.409900 10.358300 
13.814724 17.497793 -14.779795 0.596259 -11.383045 7.804990 8.168294 5.511885 0.273717 -17.464719 -20.486030 -6.819891 -2.217020 3.026240 12.041491 -0.638176 8.406266 -10.121608 0.326300 -3.671600 -10.154500 -11.469837 -5.776149 0.603242 22.374296 26.541423 -11.427362 0.937406 -6.456826 20.506031 1.406948 -21.412971 -12.806334 -0.008700 0.600700 -1.650800 1.090657 0.079769 7.671816 1.626687 0.175325 1.414926 0.398208 0.276413 1.460992 -3.185246 2.610957 -17.980753 4.575107 3.847038 5.796365 1.449400 2.003200 3.347500 2.912362 -12.043344 2.113173 -76.284840 -12.270652 28.432266 18.430212 -20.152070 -4.224177 -0.954712 0.779684 39.581655 -2.608842 41.565176 -0.907900 -7.125000 0.000000 0.000000 -48.723300 65.113300 -26.468000 -3.335064 12.479885 4.833573 66.469110 13.753607 50.503976 -26.547451 26.178600 -5.569629 -1.498036 -0.329041 -16.509354 -11.747503 19.927573 -3.516500 7.125000 0.000000 0.000000 11.676500 -10.080500 9.660600 
13.809621 17.495985 -14.788938 0.393616 -11.441056 7.929865 8.136228 5.480064 0.271261 -17.119358 -20.453755 -7.154063 -2.187964 3.158573 12.330824 -0.441670 7.478849 -11.447920 0.002700 0.332700 0.914200 -11.475935 -5.758520 0.590759 22.589260 26.445649 -11.567333 0.945650 -6.448940 20.450409 1.409388 -21.376494 -12.230976 -0.024200 1.005200 -2.763100 1.332775 0.076575 7.781724 1.611059 0.189053 1.523466 0.158633 0.289448 1.538102 -3.000567 2.691255 -17.975285 4.481147 3.933137 5.706478 1.359400 2.042800 3.314900 2.864893 -12.103437 2.103940 -77.107041 -13.454952 21.713640 17.502070 -19.093802 -3.944006 -0.922498 0.892692 42.461609 -0.097748 42.421237 0.806900 -7.125000 0.000000 0.000000 -47.616900 66.379100 -27.063700 -3.315726 12.554748 4.698663 68.404251 14.894502 45.152446 -25.326811 24.980211 -5.101896 -1.571521 -0.296540 -13.781593 -13.274482 20.366074 -4.124600 7.125000 0.000000 0.000000 10.749900 -9.457300 9.001600 
13.806432 17.493647 -14.795210 0.403424 -11.511588 8.059975 8.188905 5.461202 0.241937 -17.136419 -20.483013 -7.492119 -2.148145 3.317004 12.673293 -0.625517 8.368190 -10.260129 0.410000 -4.110400 -11.387600 -11.500789 -5.745778 0.581577 22.557259 26.386656 -11.768441 0.953844 -6.438020 20.367729 1.447624 -21.519296 -11.402943 -0.074300 1.758400 -4.838400 1.352613 0.089459 7.793751 1.582192 0.214614 1.630679 -0.008336 0.303277 1.661797 -2.807371 2.761749 -17.952158 4.317301 4.011229 5.618231 1.229700 2.074100 3.279700 2.822085 -12.161476 2.099071 -77.931924 -14.691728 14.843997 16.877558 -18.411815 -3.770431 -0.830947 1.026286 44.702888 5.112207 42.746291 4.359400 -7.125000 0.000000 0.000000 -42.799100 68.058300 -25.442400 -3.292545 12.625197 4.557433 70.290512 16.100213 39.415718 -24.242359 23.926497 -4.700918 -1.621169 -0.279750 -10.897220 -14.824172 20.228720 -4.657600 7.125000 0.000000 0.000000 9.789400 -9.361700 8.190300 
13.803987 17.489394 -14.802758 0.407467 -11.575579 8.157138 8.204697 5.436585 0.224390 -17.109716 -20.487866 -7.781892 -2.114411 3.455315 12.980439 -0.662439 8.577178 -10.031586 0.647000 -5.145600 -14.324300 -11.519152 -5.727154 0.579994 22.509409 26.478211 -11.908929 0.964185 -6.431272 20.299145 1.477562 -21.682013 -10.992173 -0.111900 2.156700 -5.938900 1.313437 0.089711 7.925238 1.604438 0.219195 1.683622 0.010471 0.308414 1.589046 -2.947007 2.893708 -17.655623 4.323598 4.190906 5.401226 1.245200 2.159700 3.104000 2.768811 -12.239432 2.089477 -78.912015 -15.699558 8.254767 16.453518 -18.030671 -3.718397 -0.757035 1.107300 45.840700 10.271875 43.700442 8.011800 -7.125000 0.000000 0.000000 -39.019300 70.265700 -24.769000 -3.256543 12.675409 4.427989 71.968074 17.139334 33.428240 -23.445940 23.240966 -4.519118 -1.735882 -0.280534 -7.991640 -17.961895 20.781177 -5.956200 7.125000 0.000000 0.000000 7.885300 -8.322200 6.726700 
13.799734 17.487693 -14.811688 0.181055 -11.651692 8.320517 8.204195 5.412917 0.209338 -16.796867 -20.405497 -8.071136 -2.091999 3.541444 13.150378 -0.672840 8.602052 -9.958407 0.716200 -5.408200 -15.076600 -11.545195 -5.707115 0.589771 22.719177 26.590176 -12.072166 0.974161 -6.452760 20.300762 1.450365 -21.596598 -11.166080 -0.090300 1.937900 -5.334200 1.489834 0.092397 8.086870 1.668201 0.234366 1.714398 0.012864 0.322611 1.466440 -3.067730 3.028056 -17.450216 4.331854 4.374658 5.250650 1.261300 2.248200 2.986800 2.720075 -12.317503 2.084294 -79.841386 -16.617174 2.421230 16.193986 -17.882392 -3.732582 -0.810354 1.088983 45.578909 10.904698 45.428466 8.737400 -7.125000 0.000000 0.000000 -42.070700 71.719600 -28.185500 -3.202927 12.734255 4.291179 73.700080 18.124334 27.551005 -22.901396 22.897188 -4.508318 -1.873452 -0.323049 -6.512776 -22.150007 21.559317 -7.865300 7.125000 0.000000 0.000000 5.382000 -6.784300 4.729900 
13.793037 17.489288 -14.821681 -0.042068 -11.746312 8.471006 8.201943 5.398061 0.195991 -16.478984 -20.283645 -8.294322 -2.078931 3.579429 13.205511 -0.677212 8.548816 -9.818348 0.757200 -5.557500 -15.505700 -11.559761 -5.691108 0.593311 22.940420 26.587071 -12.248536 0.976643 -6.493339 20.360617 1.376024 -21.257546 -11.694521 -0.042800 1.335000 -3.671000 1.685114 0.089669 8.198890 1.698405 0.245392 1.788311 -0.080853 0.332533 1.492948 -3.042608 3.120039 -17.576206 4.299921 4.502778 5.339118 1.240500 2.310400 3.073000 2.676789 -12.380137 2.094413 -80.552242 -17.657394 -2.873542 16.161399 -18.014429 -3.818048 -0.885737 1.040835 44.773470 10.472697 47.300122 8.712600 -7.125000 0.000000 0.000000 -47.221000 72.826200 -33.089900 -3.144314 12.803909 4.132009 75.611693 19.346658 21.704923 -22.384920 22.600899 -4.527739 -1.995157 -0.338596 -6.250494 -25.880241 22.856559 -9.967200 7.125000 0.000000 0.000000 3.265700 -4.687100 2.992900 
13.787402 17.489713 -14.827740 0.041220 -11.835394 8.438645 8.197461 5.403937 0.190904 -16.561368 -20.192022 -8.270712 -2.082818 3.567145 13.179734 -0.661507 8.468632 -9.902686 0.663500 -5.209400 -14.506700 -11.547449 -5.687869 0.575465 22.851837 26.425603 -12.359890 0.957879 -6.542751 20.479501 1.317011 -20.918870 -11.957660 -0.043400 1.344800 -3.698100 1.590336 0.103917 8.343712 1.669991 0.271966 1.928274 -0.141449 0.344490 1.627582 -3.024554 3.201021 -17.670813 4.279724 4.613978 5.334773 1.222000 2.364800 3.098300 2.624036 -12.430025 2.118079 -81.181601 -18.689972 -7.288897 16.416074 -18.489808 -3.997384 -0.933022 0.980862 43.056505 12.108299 49.161076 10.212600 -7.125000 0.000000 0.000000 -51.047700 74.490600 -37.730500 -3.081758 12.853145 3.993732 77.373720 20.760761 15.077419 -22.085650 22.473195 -4.593635 -2.085143 -0.221156 -4.494894 -28.473665 24.917094 -12.059500 7.125000 0.000000 0.000000 1.996100 -1.949500 1.928200 
13.783682 17.490457 -14.827315 0.262103 -11.920280 8.373320 8.197431 5.415384 0.184362 -16.843748 -20.129886 -8.141445 -2.103619 3.519295 13.078459 -0.671283 8.606921 -9.990899 0.683100 -5.284200 -14.720900 -11.534402 -5.684286 0.557957 22.599365 26.324909 -12.494622 0.933216 -6.603739 20.618192 1.307694 -20.836853 -11.935535 -0.071000 1.719200 -4.730100 1.355966 0.133991 8.436708 1.625813 0.311545 2.076820 -0.146843 0.361232 1.782243 -3.053608 3.234034 -17.530085 4.258538 4.654824 5.147138 1.197900 2.382900 2.970300 2.564254 -12.472389 2.147264 -81.795643 -19.514620 -10.273503 16.861786 -19.191530 -4.255128 -1.012811 0.845580 39.219646 14.037888 51.629629 12.093200 -7.125000 0.000000 0.000000 -58.181700 76.405600 -45.686700 -3.009230 12.880197 3.891462 78.965349 21.971696 9.420623 -22.152816 22.784463 -4.806282 -2.146572 -0.176477 -4.826933 -31.405378 26.878161 -14.521900 7.125000 0.000000 0.000000 0.604800 0.887500 0.614200 
13.780492 17.490457 -14.829760 0.402103 -11.954229 8.358079 8.202982 5.416711 0.177907 -17.009704 -20.196484 -8.094162 -2.114562 3.509239 13.052085 -0.702440 8.853908 -9.949590 0.754300 -5.547200 -15.476100 -11.533491 -5.676603 0.549151 22.436718 26.314325 -12.603573 0.923835 -6.635753 20.675771 1.325315 -20.928611 -11.836823 -0.062000 1.606400 -4.419000 1.204388 0.099634 8.565955 1.610901 0.268430 2.165278 -0.124681 0.338644 1.822961 -3.119454 3.271346 -17.368466 4.226610 4.708798 5.092658 1.179800 2.406900 2.907400 2.512686 -12.510052 2.158548 -82.475153 -20.125564 -12.374453 17.296763 -19.838214 -4.475113 -1.082342 0.689504 33.827038 17.848818 53.215808 15.437300 -7.125000 0.000000 0.000000 -62.769300 78.457100 -51.873200 -2.933632 12.909423 3.815301 80.391615 22.939000 5.389493 -22.453138 23.377320 -5.120839 -2.186490 -0.206907 -7.523398 -34.606860 28.907377 -17.440400 7.125000 0.000000 0.000000 -0.823200 4.009600 -0.878900 
